<?xml version="1.0" encoding="UTF-8"?>
<svg id="Layer_2" data-name="Layer 2" xmlns="http://www.w3.org/2000/svg" xmlns:xlink="http://www.w3.org/1999/xlink" viewBox="0 0 239.94 72.19">
  <defs>
    <style>
      .cls-1 {
        fill: url(#linear-gradient);
      }

      .cls-2 {
        fill: #fff;
      }

      .cls-3 {
        fill: #231f20;
      }
    </style>
    <linearGradient id="linear-gradient" x1="219.67" y1="67.85" x2="219.67" y2="5.39" gradientUnits="userSpaceOnUse">
      <stop offset="0" stop-color="#3c37d1"/>
      <stop offset="0" stop-color="#3b3def"/>
      <stop offset=".17" stop-color="#3352e5"/>
      <stop offset=".53" stop-color="#1e89cb"/>
      <stop offset="1" stop-color="#00dba5"/>
    </linearGradient>
  </defs>
  <g id="Layer_1-2" data-name="Layer 1">
    <g>
      <path class="cls-3" d="m215.12,51.81c-.15-.09-.26-.16-.34-.2l-.04-.13.39.33Z"/>
      <path class="cls-3" d="m214.95,52.15c.15.18.34.4.58.64l-.54-.53-.04-.11Z"/>
      <path class="cls-3" d="m220,55.99s-.02,0-.03,0c-.07-.07-.15-.15-.22-.22l.25.22Z"/>
      <path class="cls-2" d="m7.83,26.12c-1.2-.74-2.46-.95-4.88-.95H.4c-.25,0-.4.11-.4.44v12.26c0,.32.15.44.4.44h3.39c1.91,0,3.61-.42,4.69-1.39,1.26-1.15,1.96-2.94,1.96-5.11,0-2.69-.99-4.67-2.61-5.68Zm-.67,9.71c-.89.89-2.08,1.07-3.75,1.07h-1.64v-10.3h1.81c1.3,0,2.46.19,3.36.91,1.07.86,1.62,2.44,1.62,4.27,0,1.72-.48,3.11-1.39,4.04Z"/>
      <path class="cls-1" d="m239.94,19.84l-.03.16-.04.07-.17.13h-.01s-.13.1-.13.1h0s-.15.11-.15.11l-.16.29c-.33.42-.66.84-1.06,1.19-.25.22-.55.18-.76.04h-.06s-.01.32-.01.32l-.48.34c-.17.17-.36.33-.57.48-.04.32-.35.9-1.12,1.73-2.64,1.81-4.4,4.18-6.55,6.49-.44.24-1,.62-1.56,1.08-.36.48-.71.98-1.14,1.41-.31.31-.59.65-.88,1l-.1.22h-.09c-.2.23-.41.46-.63.67l-.05.09-.11.07-.06.06-.3.23.27.29h.04s.1.09.1.09l.09.05.41.47.23.13h0s.01.01.01.01l.25.26.06.11c.96.66,1.72,1.5,2.41,2.41l.08-.06c1.47,1.49,2.94,3,4.51,4.4l.36.16c.36.37.72.75,1.06,1.15.52.6,1.09,1.16,1.58,1.77.36.45.67.87,1.05,1.28.4.19.76.45,1,.76l.21.09.12.16.45.44.06.08.14.12.14.19.24.21.37.25h.05s.08.09.08.09c.2.26.41.52.62.77-.07.24-.27.43-.51.47l-.02.03-.24.25-.14.24-.42.42-.16.35c-.24.26-.51.46-.79.66l-.17.4c-.5.45-1.09.78-1.66,1.14-.23.4-.5.76-.88,1.07l-.55.42c0,.2-.08.4-.29.54-.22.14-.44.27-.64.42l-.15.06c-.33.48-.61.84-.87,1.13l-.11.25c-.1.33-.37.44-.63.43-.44.27-.68.11-.87-.04-.29-.23-.46-.46-.99.72-1.53-.29-1.17-1.67-2.78-1.29.43-.46.22-.4,0-.36-.27.06-.55.11.47-.87-.82.31-.64-.4-.83-.95-.54.33-.72.05-.79-.39-.67.91-1.17.92-1.85.39,1.03,1.62,7.82,7.46,3.78,4.69-.48.21-2.25-1.17-1.77-1.91-1.19.45-1.95-.46-2.74-1.37-.37-.43-.76-.86-1.19-1.14l7.05-7.13-6.83,4.95.09-2.5-.18-4.56s1.79,2.93,2.06,4.66c0,0,.44-3.13-.4-5.23,0,0,2.93,2.14,3.24,2.62,0,0,.13-2.28-3.02-3.85,0,0,2.89-.22,5.04.44,0,0-1.88-1.93-5.08-2.06l4.12-2.28-5.48.48,3.24-3.24-3.46,2.1-.17-3.72-.79-1.98-.53,2.02-.26,3.99-2.98-2.19,2.45,3.42-2.45-.96-.53.22-2.36-.04,4.82,1.97s-4.29,1.13-5.39,2.27l5.17-.87-3.68,3.76,3.46-2.06-.61,4.6,2.32-4.95-.22,9.07-.2-.17c0-.21-.06-.36-.36-.3,0,0-.02,0-.03,0-.07-.07-.15-.15-.22-.22-1.23-1.22-2.62-2.37-3.95-3.49-.28-.21-.51-.36-.68-.48-.15-.09-.26-.16-.34-.2-.33-.16-.23.06.18.54.15.18.34.4.58.64.01.02.03.04.05.06,2.7,2.92,10,9.86,11.12,11.19-1.16,1.05-1.68.21-2.24-.62-.48-.71-1-1.41-2-.99.51-.8.15-.76-.33-.72h-.5c.16-.27.23-.46.25-.59l-.31.09c-.63-.36-1.23-.8-1.8-1.25-.11.16-.23.35-.32.55,0-.3.06-.54.09-.73l-.27-.21-.23-.2h-.04s.02-.01.02-.01c-.29-.26-.58-.52-.85-.78-.09.09-.14.36-.33.61-.55-.5-.48-1.2-.6-1.54l-.17-.18c-.1-.02-.23,0-.44.1l.24-.3c-.28-.29-.55-.58-.82-.87l-.2.19.07-.32-.14-.15c-.09.15-.2.36-.31.61.23.35.42.74.48,1.17l.16-.12-.14.26-.02.5-.04.1c.1.17.36.11.73-.42.15.79.18,2,1.71,1.83-.91.6.05,1.34,1.02,2.14,1.08.9,2.16,1.88.59,2.85.22-.65-.16-.96-.54-1.04-.54-.11-1.07.22.04.69-.07.22-.17.4-.3.55l.19.17-.09.46-.11.05.1.13.03.12c1.95-1.34,3.88-3.57,1.98-.71-.48,0-.62.29-.57.58.06.41.46.81.78.46.15.68-.23,1.27-.55,1.34l.04.06.17.11c.21.17.36.4.48.65l.08.08.16.36c.31-.02.59.1.77.28l-.12.09c-.21.15-.44.29-.66.43l-.09.08-.29-.22-.21.05h0s.02.05.02.05l.05.23-.02.16c-.08.24-.19.46-.37.64l-.15.12-.16.11-.08.03.19.2c-.3.27-.6.55-.88.85-.21-.22-.42-.42-.62-.63-.42-.38-.81-.79-1.2-1.19l-.18-.45-.06-.08c-.24.07-.5,0-.65-.28-.12-.24-.35-.39-.54-.56-.23-.21-.4-.45-.57-.71l-.38-.49-.02-.03-.48-.4c-.87-.65-1.8-1.38-2.31-2.36-.3-.3-.59-.6-.89-.9l-.11-.17-.26-.1c-.11-.32-.08-.75-.05-1.09l-.35-.31c-.1.13-.23.31-.38.54-.83-1.22-3.01-2.06-3.08-3.23-.24-.2-.47-.42-.67-.65-1.59-.82-4.4-3.3-5.53-4.84-.74-.73-1.56-1.44-2.11-2.32.3-.17.58-.37.8-.65l.16-.21.07.09c.29-.23.61-.42.9-.71.48-.49.8-1,1.4-1.36l.19-.07.09-.09c.56-.58.99-1.24,1.49-1.87.5-.64,1.13-1.29,1.75-1.82.25-.22.58-.37.88-.57.53-.65,1.05-1.15,1.58-1.33l.27-.42c.17-.23.37-.41.56-.62.3-.34.54-.72.82-1.08,1.58-.82,2.84-2.21,3.88-3.7l.14-.11c.13.02.37-.14.64-.3.32-.19.68-.39.96-.26l.04-.07-.27-.44-.35.16.29-.39-.08-.37-.34-.18-.5.14h-.34s-.02-.02-.02-.02c-.19-.4-.48-.73-.82-1.01.32-.14.66-.26.93-.13.67-.84-.42-.54-1.21-.09l-.09-.06-.04-.07-.03-.04v-.03s-.03-.22-.03-.22l-.02-.17c.04-.29-.06-.57-.32-.71-.48-.68-1.31-1.2-1.84-1.76l-.18-.19-.23-.45-.47-.36-.13-.35c-.21-.25-.47-.43-.73-.6l-.13-.15-.1-.13c-.58-1.48-2.36-2.68-4.23-3.86l-.02-.04c-.14-.4-.3-.78-.59-1.09-.26-.26-.57-.41-.93-.55-.45-.17-.61-.41-.87-.79-.48-.72-.98-1.44-1.5-2.14-.24-.32-.53-.63-.78-.95,1.21-.75,1.91-1.98,2.84-3.01l.14-.17h0l.25-.25.25-.08c.21-.14.4-.31.59-.48l.27-.16.12-.16.07-.18h0s.07-.25.07-.25h.03s.46-.19.46-.19c.34-.33.65-.67.93-1.05l.03-.11.56-.48c.48-.87,1.26-1.47,2.02-2.11.5-.41.93-.88,1.36-1.37l.05-.08c.42-.46.69-1.02,1.25-1.34l.24-.08c.49-.47.97-.94,1.49-1.38.24-.2.51-.34.65-.63l.24-.53c.31-.39.83-.47,1.21-.76.53-.4.91-1.02,1.41-1.47.37-.33.82-.58,1.15-.96.54-.6.83-1.4,1.48-1.87l.02-.02.22-.29.31-.25c.27.25.54.51.79.77l-.02.08.28.18c.29.31.58.62.87.93.68.73,1.41,1.42,2.23,1.99l.29.32c2.42,1.89,4.56,3.77,2.56,4.98q.84.21,1.6-.7c1.12,1.1,2.23,2.31,3.24,3.51h.1c.81.23,1.35.77,1.87,1.4l.32.35.04.03c.6.46,1.08,1.04,1.54,1.64l.06.08c.73.73,1.47,1.45,2.24,2.14.32.29.72.52,1.03.84.18.18.31.4.46.6h.08s.09.02.09.02c.18.22.35.44.51.66Z"/>
      <path class="cls-2" d="m42.84,4.71c-.25,0-.36-.08-.36-.31v-.78c0-.23.11-.3.36-.3h9.23c.27,0,.36.11.32.32l-.11.76c-.04.25-.15.31-.42.31h-3.62v11.36c0,.25-.12.38-.36.38h-1.03c-.27,0-.38-.1-.38-.38V4.71h-3.62Z"/>
      <path class="cls-2" d="m56.13,7.03c-2.84,0-4.38,2.1-4.38,4.79s1.31,4.82,4.27,4.82,4.4-2.11,4.4-4.8-1.34-4.81-4.29-4.81Zm-.09,8.35c-2.02,0-2.61-1.85-2.61-3.6s.63-3.49,2.69-3.49,2.63,1.79,2.63,3.57-.71,3.52-2.71,3.52Z"/>
      <path class="cls-2" d="m68.26,7.63c0-.27.13-.38.38-.38h.88c.25,0,.36.11.36.38v8.45c0,.27-.1.38-.36.38h-.84c-.23,0-.36-.09-.36-.34l-.02-.61c-.88.74-1.91,1.15-3.01,1.15-2.2,0-3-1.41-3-3.45v-5.57c0-.27.13-.38.38-.38h.88c.25,0,.36.11.36.38v5.32c0,1.35.31,2.31,1.83,2.31.84,0,1.91-.55,2.52-1.13v-6.5Z"/>
      <path class="cls-2" d="m73.88,16.05c0,.27-.13.4-.38.4h-.86c-.25,0-.38-.13-.38-.4V7.63c0-.27.09-.38.36-.38h.84c.23,0,.36.09.36.34l.02.65c.46-.63,1.14-1.2,2.23-1.2.42,0,.71.06.67.34l-.13.86-.27.23c-.1,0-.27-.06-.55-.06-.67,0-1.41.44-1.91,1.14v6.5Z"/>
      <path class="cls-2" d="m79.53,7.24h-.87c-.25,0-.38.11-.38.38v8.43c0,.27.13.4.38.4h.86c.25,0,.38-.13.38-.4V7.62c0-.27-.12-.38-.36-.38Zm-.46-3.17c-.55,0-.97.36-.97.91s.44.91.99.91.97-.36.97-.91-.44-.91-.99-.91Z"/>
      <path class="cls-2" d="m83.66,11.97c-1.09-.42-1.91-1.2-1.91-2.4,0-1.68,1.49-2.53,3.17-2.53.82,0,1.64.13,2.46.51l.17.36-.23.63-.38.15c-.57-.25-1.37-.46-1.98-.46-1.12,0-1.62.57-1.62,1.22s.44.95,1.24,1.3l1.47.63c1.05.44,1.93,1.2,1.93,2.42,0,1.75-1.47,2.84-3.49,2.84-.97,0-1.98-.28-2.61-.61l-.17-.38.25-.65.36-.17c.69.31,1.56.57,2.21.57,1.11,0,1.85-.55,1.85-1.45,0-.74-.53-1.15-1.43-1.49l-1.28-.5Z"/>
      <path class="cls-2" d="m91.28,16.05c0,.27-.13.4-.38.4h-.86c-.25,0-.38-.13-.38-.4V7.63c0-.25.13-.38.36-.38h.82c.23,0,.38.09.38.34l.02.59c.8-.72,1.87-1.14,2.9-1.14s1.98.38,2.48,1.18c.88-.78,2.06-1.18,3.17-1.18,2.42,0,3.13,1.62,3.13,3.74v5.28c0,.27-.13.4-.38.4h-.86c-.25,0-.38-.13-.38-.4v-5.34c0-1.39-.34-2.34-1.89-2.34-.78,0-1.72.38-2.38.9.11.36.15,1.51.15,2.1v4.69c0,.27-.13.4-.38.4h-.86c-.25,0-.38-.13-.38-.4v-5.36c0-1.31-.29-2.33-1.79-2.33-.88,0-1.79.5-2.48,1.12v6.56Z"/>
      <path class="cls-2" d="m16.42,28.88c-2.75,0-4.39,2.02-4.39,4.81s1.53,4.81,4.42,4.81c.9,0,2.2-.13,3.01-.56.21-.11.27-.21.19-.42l-.23-.63c-.07-.21-.25-.21-.42-.13-.65.29-1.52.4-2.34.4-1.89,0-2.88-1.43-2.94-3.22h5.86c.49,0,.57-.1.57-.54v-.48c0-2.21-1.26-4.04-3.74-4.04Zm2.13,3.95h-4.79c.14-1.45.99-2.69,2.58-2.69,1.48,0,2.21,1.05,2.21,2.34v.34Z"/>
      <path class="cls-2" d="m25.01,36.51l2.29-7.11c.08-.23.21-.31.48-.31h.88c.3,0,.32.17.25.38l-3.11,8.52c-.1.23-.23.3-.44.3h-.91c-.25,0-.38-.09-.46-.3l-3.09-8.56c-.08-.21.04-.34.27-.34h1.05c.29,0,.4.07.46.27l2.33,7.15h.02Z"/>
      <path class="cls-2" d="m34,28.88c-2.75,0-4.39,2.02-4.39,4.81s1.53,4.81,4.43,4.81c.89,0,2.19-.13,3.01-.56.21-.11.27-.21.19-.42l-.23-.63c-.08-.21-.25-.21-.42-.13-.65.29-1.52.4-2.34.4-1.89,0-2.88-1.43-2.93-3.22h5.85c.5,0,.57-.1.57-.54v-.48c0-2.21-1.26-4.04-3.74-4.04Zm2.13,3.95h-4.79c.14-1.45.99-2.69,2.58-2.69,1.49,0,2.21,1.05,2.21,2.34v.34Z"/>
      <path class="cls-2" d="m41.16,37.9c0,.27-.13.4-.38.4h-.86c-.25,0-.38-.13-.38-.4v-12.62c0-.25.06-.36.28-.4l.95-.13c.27-.04.38.08.38.32v12.83Z"/>
      <path class="cls-2" d="m47.42,28.88c-2.84,0-4.38,2.09-4.38,4.78s1.32,4.83,4.27,4.83,4.4-2.12,4.4-4.81-1.34-4.8-4.29-4.8Zm-.09,8.35c-2.02,0-2.61-1.85-2.61-3.6s.63-3.49,2.69-3.49,2.63,1.79,2.63,3.56-.71,3.53-2.71,3.53Z"/>
      <path class="cls-2" d="m57.97,28.88c-1.09,0-2.23.49-2.84,1.22l-.02-.67c0-.25-.13-.34-.36-.34h-.78c-.27,0-.36.12-.36.38v12.53c0,.27.13.4.38.4h.86c.25,0,.38-.13.38-.4v-4.58c.58.7,1.58,1.07,2.52,1.07,2.76,0,4.13-2.34,4.13-4.88s-1.2-4.73-3.91-4.73Zm-.44,8.33c-.93,0-1.91-.59-2.31-1.34v-4.48c.48-.69,1.53-1.22,2.42-1.22,1.99,0,2.54,1.81,2.54,3.47s-.69,3.56-2.65,3.56Z"/>
      <path class="cls-2" d="m65.4,37.9c0,.27-.13.4-.38.4h-.86c-.25,0-.38-.13-.38-.4v-8.43c0-.25.13-.38.36-.38h.82c.23,0,.38.09.38.34l.02.59c.8-.72,1.87-1.15,2.9-1.15s1.98.38,2.48,1.18c.88-.78,2.06-1.18,3.17-1.18,2.42,0,3.13,1.62,3.13,3.74v5.28c0,.27-.13.4-.38.4h-.86c-.25,0-.38-.13-.38-.4v-5.34c0-1.39-.34-2.34-1.89-2.34-.78,0-1.72.38-2.38.9.11.36.15,1.51.15,2.1v4.69c0,.27-.13.4-.38.4h-.86c-.25,0-.38-.13-.38-.4v-5.36c0-1.31-.29-2.33-1.79-2.33-.88,0-1.79.5-2.48,1.12v6.56Z"/>
      <path class="cls-2" d="m83.28,28.88c-2.75,0-4.39,2.02-4.39,4.81s1.53,4.81,4.42,4.81c.9,0,2.19-.13,3.01-.56.21-.11.27-.21.19-.42l-.23-.63c-.07-.21-.25-.21-.42-.13-.65.29-1.52.4-2.34.4-1.89,0-2.88-1.43-2.93-3.22h5.85c.49,0,.57-.1.57-.54v-.48c0-2.21-1.26-4.04-3.74-4.04Zm2.13,3.95h-4.79c.13-1.45.99-2.69,2.58-2.69,1.49,0,2.21,1.05,2.21,2.34v.34Z"/>
      <path class="cls-2" d="m90.44,37.9c0,.27-.13.4-.38.4h-.86c-.25,0-.38-.13-.38-.4v-8.43c0-.27.09-.38.36-.38h.84c.23,0,.36.09.36.34l.02.59c.88-.74,2.02-1.15,3.13-1.15,2.19,0,3.03,1.34,3.03,3.41v5.61c0,.27-.13.4-.38.4h-.86c-.25,0-.38-.13-.38-.4v-5.34c0-1.35-.34-2.33-1.87-2.33-.88,0-1.97.5-2.63,1.1v6.56Z"/>
      <path class="cls-2" d="m99.18,26.94c0-.25.06-.36.29-.4l.95-.13c.27-.04.38.08.38.32v2.36h2.23c.21,0,.29.08.29.29v.57c0,.21-.08.29-.29.29h-2.23v5.13c0,1.24.23,1.85,1.35,1.85.44,0,.84-.09,1.16-.21.19-.08.34-.04.4.17l.17.57c.06.21-.02.31-.25.4-.44.17-1.16.34-1.79.34-2.21,0-2.67-1.07-2.67-3.01v-5.24h-1.05c-.21,0-.29-.08-.29-.29v-.57c0-.21.08-.29.29-.29h1.05v-2.15Z"/>
      <path class="cls-2" d="m68.09,48.41v4.17h4.5c.25,0,.36.08.36.31v.76c0,.23-.11.31-.36.31h-4.5v5.82c0,.25-.11.38-.36.38h-1.03c-.27,0-.38-.1-.38-.38v-12.32c0-.32.15-.44.4-.44h6.67c.27,0,.36.11.33.32l-.12.76c-.04.25-.15.3-.42.3h-5.09Z"/>
      <path class="cls-2" d="m81.03,51.32c0-.27.13-.38.38-.38h.88c.25,0,.36.11.36.38v8.45c0,.27-.09.38-.36.38h-.84c-.23,0-.36-.09-.36-.34l-.02-.61c-.88.74-1.91,1.15-3.01,1.15-2.19,0-2.99-1.41-2.99-3.45v-5.57c0-.27.13-.38.38-.38h.88c.25,0,.36.11.36.38v5.32c0,1.35.31,2.31,1.83,2.31.84,0,1.91-.55,2.52-1.12v-6.5Z"/>
      <path class="cls-2" d="m86.65,59.75c0,.27-.13.4-.38.4h-.86c-.25,0-.38-.13-.38-.4v-8.43c0-.27.09-.38.36-.38h.84c.23,0,.36.09.36.34l.02.59c.88-.74,2.02-1.15,3.13-1.15,2.19,0,3.03,1.34,3.03,3.41v5.61c0,.27-.13.4-.38.4h-.86c-.25,0-.38-.13-.38-.4v-5.34c0-1.35-.34-2.33-1.87-2.33-.88,0-1.96.5-2.63,1.11v6.56Z"/>
      <path class="cls-2" d="m102.49,46.59l-.95.14c-.23.03-.29.15-.29.4v4.65c-.56-.66-1.6-1.05-2.48-1.05-2.52,0-4.16,2.06-4.16,4.87,0,2.5,1.18,4.74,3.93,4.74,1.09,0,2.19-.51,2.81-1.24l.02.67c0,.27.11.38.4.38h.72c.25,0,.38-.14.38-.4v-12.83c0-.25-.11-.36-.38-.32Zm-1.24,11.19c-.48.69-1.51,1.26-2.4,1.26-1.66,0-2.55-1.5-2.55-3.52s.99-3.49,2.7-3.49c.94,0,1.85.59,2.25,1.32v4.44Z"/>
      <path class="cls-2" d="m122.57,7.45c-2.71,0-4.35,1.77-4.35,4.43,0,2.89,1.66,4.57,4,4.57.67,0,1.46-.16,2.12-.53-.2,1.88-2.16,2.97-5.57,2.97-3.6,0-5.35-1.14-5.35-3.37,0-.85.29-1.92.77-2.9.22-.46.13-.63-.27-.81l-1.05-.48c-.48-.2-.66-.04-.89.42-.68,1.33-1.05,2.73-1.05,3.95,0,3.67,2.87,5.55,7.82,5.55s8.06-1.84,8.06-5.68v-3.89c0-2.9-1.73-4.24-4.24-4.24Zm1.79,6.16c-.52.32-1.16.48-1.68.48-1.36,0-1.97-.73-1.97-2.23,0-1.25.63-2.07,1.92-2.07s1.73.74,1.73,1.88v1.95Z"/>
      <path class="cls-2" d="m121.19,5.05c.7,0,1.25-.46,1.25-1.18s-.55-1.2-1.25-1.2-1.27.48-1.27,1.2.55,1.18,1.27,1.18h0Z"/>
      <path class="cls-2" d="m124.4,5.05c.7,0,1.25-.46,1.25-1.18s-.55-1.2-1.25-1.2-1.27.48-1.27,1.2.55,1.18,1.27,1.18h0Z"/>
      <path class="cls-2" d="m133.59,7.45c-2.71,0-4.34,1.77-4.34,4.43,0,2.89,1.66,4.57,4,4.57.57,0,1.25-.13,1.81-.39-.41,1.31-1.38,2.1-3.34,3.15-.41.22-.55.41-.37.74l.61,1.12c.18.32.42.39.72.24,4.37-2.19,5.16-3.76,5.16-7.5v-2.12c0-2.9-1.73-4.24-4.24-4.24Zm1.79,6.16c-.52.32-1.16.48-1.68.48-1.36,0-1.97-.73-1.97-2.23,0-1.25.63-2.07,1.92-2.07s1.73.74,1.73,1.88v1.95Z"/>
      <path class="cls-2" d="m172.4,4.83c.72,0,1.27-.46,1.27-1.18s-.55-1.2-1.27-1.2-1.25.48-1.25,1.2.55,1.18,1.25,1.18h0Z"/>
      <path class="cls-2" d="m186.58,7.01c-2.27,0-4.3,1.42-5.9,3.56v-2.62c0-.39-.2-.5-.55-.5h-1.36c-.35,0-.57.13-.57.5v6.09h-2.05c-1.14,0-1.79-.19-2.27-.63v-5.42c0-.39-.18-.55-.57-.55h-1.31c-.39,0-.57.15-.57.55v4.94c0,.89-.2,1.11-1.05,1.11h-20.54v-2.23c0-3.43-1.71-4.76-5.11-4.76-.96,0-2.38.2-3.06.48-.26.11-.35.24-.35.57v1.03c0,.35.17.48.46.48.72,0,1.69-.22,2.69-.22,2.1,0,2.93.63,2.93,2.54v2.12h-6.95c-.37,0-.5.22-.5.57v1.29c0,.35.13.55.5.55h30.18c1.42,0,2.36-.37,2.84-1.1.51.65,1.32,1.04,2.44,1.1h10.62c3.52,0,4.79-1.1,4.79-4,0-3.3-1.77-5.44-4.74-5.44Zm.39,7.03h-6.31c1.48-2.38,3.6-4.69,5.77-4.69,1.49,0,2.38,1.11,2.38,2.95,0,1.27-.44,1.74-1.84,1.74Z"/>
      <path class="cls-2" d="m116.16,24.86c.7,0,1.25-.46,1.25-1.18s-.55-1.2-1.25-1.2-1.27.48-1.27,1.2.54,1.18,1.27,1.18h0Z"/>
      <path class="cls-2" d="m119.37,24.86c.7,0,1.25-.46,1.25-1.18s-.55-1.2-1.25-1.2-1.27.48-1.27,1.2.54,1.18,1.27,1.18h0Z"/>
      <path class="cls-2" d="m128.83,40.92c-.72,0-1.27.48-1.27,1.2s.55,1.18,1.27,1.18,1.25-.46,1.25-1.18-.55-1.2-1.25-1.2h0Z"/>
      <path class="cls-2" d="m125.62,40.92c-.72,0-1.27.48-1.27,1.2s.55,1.18,1.27,1.18,1.25-.46,1.25-1.18-.55-1.2-1.25-1.2h0Z"/>
      <path class="cls-2" d="m168.73,26.68c.72,0,1.27-.46,1.27-1.18s-.54-1.2-1.27-1.2-1.25.48-1.25,1.2.55,1.18,1.25,1.18h0Z"/>
      <path class="cls-2" d="m175.24,26.68c.7,0,1.25-.46,1.25-1.18s-.55-1.2-1.25-1.2-1.27.48-1.27,1.2.54,1.18,1.27,1.18h0Z"/>
      <path class="cls-2" d="m178.46,26.68c.7,0,1.25-.46,1.25-1.18s-.55-1.2-1.25-1.2-1.27.48-1.27,1.2.55,1.18,1.27,1.18h0Z"/>
      <path class="cls-2" d="m185.19,22.7l-1.57.22c-.29.04-.42.15-.42.53v11.34c0,.9-.2,1.12-1.05,1.12h-1.83c-1.14,0-1.79-.2-2.28-.63v-5.42c0-.39-.17-.54-.57-.54h-1.31c-.39,0-.57.15-.57.54v4.94c0,.9-.2,1.12-1.05,1.12h-2.05c-1.14,0-1.79-.2-2.27-.63v-5.42c0-.39-.18-.54-.57-.54h-1.31c-.4,0-.57.15-.57.54v4.94c0,.9-.2,1.12-1.05,1.12h-3.69v-.11c0-2.87-1.64-4.41-4.31-4.41s-4.33,1.7-4.33,4.11v.41h-21.37c-1.14,0-1.79-.2-2.27-.63v-5.42c0-.39-.18-.54-.57-.54h-1.31c-.39,0-.57.15-.57.54v4.94c0,.9-.2,1.12-1.05,1.12h-6.58c-1.17,0-1.53-.41-1.53-1.38v-6.64c0-.3-.17-.48-.48-.43l-1.57.19c-.29.04-.4.18-.4.55v.72c-4.39,1.51-5.81,3.56-5.81,5.35,0,2.17,1.86,2.95,3.71,2.95.84,0,1.71-.15,2.41-.43.52,1,1.73,1.53,3.51,1.53h6.97c1.42,0,2.36-.37,2.84-1.1.51.65,1.32,1.05,2.45,1.1h22.19c.2.48.46.96.74,1.42.33.53.55.63,1.2.63h1.35c2.01,0,3.46-.68,4.2-2.05h4.5c1.42,0,2.36-.37,2.84-1.1.51.65,1.32,1.05,2.45,1.1h2.54c1.42,0,2.36-.37,2.84-1.1.51.65,1.31,1.05,2.45,1.1h2.31c2.27,0,3.25-.94,3.25-2.73v-12.41c0-.33-.15-.5-.46-.46Zm-68.48,11.83c-.57.2-1.2.35-1.81.35-.96,0-1.5-.35-1.5-.98,0-1.07,1.33-2.07,3.32-2.78v3.41Zm41.83,3.43h-1.03c-.4-.66-.61-1.38-.61-2.12,0-1.09.42-2.11,1.83-2.11s1.82,1.02,1.82,2.11c0,1.53-.88,2.12-2.01,2.12Z"/>
      <path class="cls-2" d="m190.47,22.7l-1.57.22c-.28.04-.42.15-.42.53v14.31c0,.39.17.55.57.55h1.31c.39,0,.57-.15.57-.55v-14.59c0-.33-.15-.5-.46-.46h0Z"/>
      <path class="cls-2" d="m117.31,67.36c-.72,0-1.27.48-1.27,1.2s.55,1.18,1.27,1.18,1.25-.46,1.25-1.18-.55-1.2-1.25-1.2h0Z"/>
      <path class="cls-2" d="m120.52,67.36c-.72,0-1.27.48-1.27,1.2s.55,1.18,1.27,1.18,1.25-.46,1.25-1.18-.55-1.2-1.25-1.2h0Z"/>
      <path class="cls-2" d="m137.54,60.15c.37,0,.5-.22.5-.57v-1.38c0-.33-.02-.46-.42-.83-.61-.55-.9-1.2-1.16-2.4-.59-2.75-1.97-4.22-4.63-4.22-1.2,0-2.45.37-3.65,1.16-.28.2-.35.37-.24.61l.52,1.18c.13.33.28.39.66.2.96-.57,1.79-.81,2.49-.81,1.4,0,2.08.65,2.45,2.4.28,1.25.51,1.73,1.01,2.25h-8.74c-1.36,0-2.36-.17-4.48-.92l-1.26-.44c-.44-.15-.68-.02-.81.41l-.35,1.11c-.11.35-.02.57.35.7l2.03.7c1.53.52,2.16.98,2.16,1.51,0,.92-1.97,1.77-5.38,1.77-3.63,0-5.35-1.14-5.35-3.36,0-.85.28-1.92.76-2.91.22-.46.13-.63-.26-.81l-1.05-.48c-.48-.22-.66-.04-.9.42-.68,1.33-1.05,2.73-1.05,3.95,0,3.67,2.86,5.55,7.82,5.55s7.89-1.75,7.89-4.02c0-.22-.07-.52-.22-.79h11.29Z"/>
      <path class="cls-2" d="m157.15,62.77c-.72,0-1.27.48-1.27,1.2s.54,1.18,1.27,1.18,1.25-.46,1.25-1.18-.55-1.2-1.25-1.2h0Z"/>
      <path class="cls-2" d="m153.94,62.77c-.72,0-1.27.48-1.27,1.2s.55,1.18,1.27,1.18,1.25-.46,1.25-1.18-.55-1.2-1.25-1.2h0Z"/>
      <path class="cls-2" d="m155.82,60.15c1.42,0,2.36-.37,2.84-1.09.51.65,1.32,1.04,2.45,1.09h2.53c1.45,0,2.41-.44,2.93-1.2.68.81,1.77,1.2,2.73,1.2,1.25,0,2.14-.5,2.67-1.29.72.87,1.7,1.29,2.84,1.29,1.24,0,2.16-.5,2.69-1.29.5.79,1.36,1.25,2.62,1.29h2.28c2.27,0,3.25-.94,3.25-2.73v-12.41c0-.33-.15-.5-.46-.46l-1.57.22c-.28.04-.42.15-.42.52v11.34c0,.9-.2,1.11-1.05,1.11h-1.83c-1.12,0-1.79-.17-2.27-.63l.02-.48v-4.96c0-.4-.2-.53-.55-.53h-1.42c-.31,0-.5.13-.5.53v4.65c0,.83-.33,1.49-1.33,1.49-.57,0-1.16-.22-1.7-.7v-3.47c0-.39-.18-.53-.52-.53h-1.38c-.35,0-.55.13-.55.53v2.69c0,.83-.33,1.49-1.33,1.49-.57,0-1.16-.22-1.73-.68v-3.5c0-.39-.17-.53-.52-.53h-1.42c-.31,0-.53.13-.53.53v2.86c0,.83-.39,1.24-1.22,1.24h-2.01c-1.14,0-1.79-.2-2.27-.63v-5.42c0-.39-.17-.55-.57-.55h-1.31c-.39,0-.57.15-.57.55v4.94c0,.9-.2,1.11-1.05,1.11h-11.88c-.85,0-1.05-.22-1.05-1.11v-11.62c0-.33-.15-.5-.46-.46l-1.57.22c-.28.04-.42.15-.42.52v12.13c0,1.79.98,2.73,3.26,2.73h12.36Z"/>
      <path class="cls-2" d="m190.47,44.55l-1.57.22c-.28.04-.42.15-.42.53v14.31c0,.39.17.55.57.55h1.31c.39,0,.57-.15.57-.55v-14.59c0-.33-.15-.5-.46-.46h0Z"/>
    </g>
  </g>
</svg>